<?xml version="1.0" standalone="no"?>
<!DOCTYPE svg PUBLIC "-//W3C//DTD SVG 20010904//EN"
 "http://www.w3.org/TR/2001/REC-SVG-20010904/DTD/svg10.dtd">
<svg version="1.0" xmlns="http://www.w3.org/2000/svg"
 width="20.000000pt" height="20.000000pt" viewBox="0 0 192.000000 192.000000"
 preserveAspectRatio="xMidYMid meet">

<g transform="translate(0.000000,100.000000) scale(0.100000,-0.100000)"
fill="#000000" stroke="none">
<path d="M825 1903 c-184 -41 -273 -76 -385 -154 -186 -129 -325 -333 -376
-554 -14 -60 -19 -115 -18 -220 1 -166 21 -253 87 -387 24 -49 40 -91 36 -95
-11 -13 -161 -474 -156 -480 3 -2 95 25 204 61 109 36 214 68 233 71 19 3 40
11 47 17 9 7 35 0 95 -25 157 -67 184 -72 388 -72 183 1 186 1 280 33 237 82
405 223 528 442 168 299 146 697 -52 974 -144 201 -341 330 -584 381 -62 14
-279 19 -327 8z m177 -49 c17 -36 0 -59 -42 -59 -24 0 -35 6 -41 21 -19 53 60
90 83 38z m73 -19 c0 -13 -8 -21 -22 -23 -17 -3 -23 2 -23 16 0 10 3 22 7 26
13 13 38 1 38 -19z m-180 5 c8 -13 -13 -40 -30 -40 -15 0 -28 27 -19 41 7 12
41 11 49 -1z m230 -8 c0 -18 -20 -15 -23 4 -3 10 1 15 10 12 7 -3 13 -10 13
-16z m-299 -3 c10 -17 -13 -36 -27 -22 -12 12 -4 33 11 33 5 0 12 -5 16 -11z
m336 -93 c183 -46 324 -142 445 -301 85 -112 143 -294 143 -450 0 -337 -216
-631 -542 -737 -193 -63 -400 -46 -581 46 l-84 43 -139 -43 c-76 -25 -142 -43
-146 -42 -4 2 13 62 38 133 24 72 44 136 44 143 0 7 -13 33 -30 56 -122 178
-146 480 -55 697 77 182 213 323 396 408 159 75 338 91 511 47z m-735 -62 c3
-8 -2 -23 -11 -32 -14 -15 -18 -15 -31 -1 -9 9 -13 23 -9 32 8 21 43 22 51 1z
m53 -39 c10 -12 10 -18 0 -30 -25 -30 -61 -7 -46 30 3 8 12 15 19 15 8 0 20
-7 27 -15z m1210 -80 c17 -20 5 -45 -20 -45 -11 0 -23 7 -26 15 -6 15 11 45
26 45 4 0 13 -7 20 -15z m-55 -55 c0 -18 -6 -26 -21 -28 -26 -4 -40 24 -23 45
18 21 44 11 44 -17z m-1469 -301 c10 -17 -13 -36 -27 -22 -12 12 -4 33 11 33
5 0 12 -5 16 -11z m1642 -16 c-4 -22 -22 -20 -26 1 -2 10 3 16 13 16 10 0 15
-7 13 -17z m-1650 -46 c4 -20 -25 -34 -40 -19 -15 15 -1 44 19 40 10 -2 19
-11 21 -21z m1682 -14 c0 -22 -30 -27 -48 -9 -16 16 -16 18 2 31 21 16 46 4
46 -22z m-1692 -39 c26 -18 28 -41 5 -66 -22 -24 -49 -23 -67 4 -20 29 -20 34
4 58 24 24 29 24 58 4z m1712 -9 c15 -18 5 -64 -15 -72 -45 -17 -87 26 -65 67
13 24 61 27 80 5z m-1712 -108 c4 -20 -25 -34 -40 -19 -15 15 -1 44 19 40 10
-2 19 -11 21 -21z m1688 -26 c-13 -14 -14 -20 -4 -24 10 -3 10 -7 1 -17 -15
-16 -36 -3 -29 17 4 9 1 22 -6 30 -10 12 -9 18 7 29 16 12 21 12 34 -1 13 -13
13 -17 -3 -34z m-1696 -26 c0 -8 -7 -15 -15 -15 -16 0 -20 12 -8 23 11 12 23
8 23 -8z m105 -255 c0 -18 -5 -25 -20 -25 -11 0 -24 -6 -28 -12 -11 -18 -46
-16 -53 2 -9 24 14 47 36 35 14 -7 19 -5 23 11 8 30 42 21 42 -11z m1443 -69
c21 -13 10 -46 -16 -49 -27 -4 -40 22 -22 43 14 17 20 18 38 6z m67 -66 c0
-22 -31 -33 -47 -17 -17 17 -1 44 24 40 15 -2 23 -10 23 -23z m-1561 -311 c21
-8 20 -28 0 -45 -14 -11 -18 -10 -30 6 -10 13 -11 22 -3 32 13 15 12 15 33 7z
m876 -42 c18 -14 21 -25 16 -45 -8 -35 -49 -46 -76 -22 -25 23 -25 40 0 65 25
25 32 25 60 2z m85 -27 c0 -23 -34 -33 -46 -14 -10 17 9 41 30 37 9 -2 16 -12
16 -23z m45 10 c0 -8 -7 -15 -15 -15 -8 0 -15 7 -15 15 0 8 7 15 15 15 8 0 15
-7 15 -15z m-290 -10 c0 -8 -7 -15 -15 -15 -8 0 -15 7 -15 15 0 8 7 15 15 15
8 0 15 -7 15 -15z m63 1 c7 -19 -18 -40 -38 -32 -15 6 -20 28 -8 39 12 12 41
7 46 -7z m-858 -41 c0 -13 -8 -21 -22 -23 -17 -3 -23 2 -23 16 0 10 3 22 7 26
13 13 38 1 38 -19z"/>
<path d="M795 1690 c-129 -35 -230 -94 -330 -195 -75 -74 -98 -105 -133 -176
-55 -114 -75 -200 -76 -324 0 -125 15 -197 64 -301 89 -193 228 -318 427 -387
123 -42 272 -49 392 -18 279 70 473 264 542 541 31 122 23 270 -20 394 -80
232 -267 405 -505 466 -104 26 -263 26 -361 0z m144 -59 c-19 -25 -24 -28 -36
-16 -18 18 -43 8 -43 -16 0 -25 26 -35 45 -19 12 10 18 8 34 -11 16 -20 23
-22 47 -14 39 14 46 65 12 90 -22 16 -21 16 42 10 194 -21 387 -134 491 -286
77 -114 108 -208 116 -349 6 -129 -10 -208 -69 -330 -33 -69 -56 -101 -127
-171 -147 -146 -305 -207 -506 -195 -184 10 -302 63 -436 196 -70 70 -94 102
-127 170 -115 239 -88 501 71 708 98 128 259 224 420 251 91 15 91 15 66 -18z"/>
<path d="M1040 1614 c-19 -22 9 -50 36 -36 11 6 27 13 37 16 10 3 15 11 12 16
-4 6 -15 8 -25 5 -10 -3 -21 -1 -25 5 -9 14 -20 13 -35 -6z"/>
<path d="M814 1599 c-10 -17 13 -36 27 -22 12 12 4 33 -11 33 -5 0 -12 -5 -16
-11z"/>
<path d="M1303 1474 c-49 -21 -69 -57 -55 -100 l10 -34 -84 0 -85 0 -21 48
c-26 60 -46 82 -72 82 -26 0 -62 -24 -76 -50 -10 -18 -9 -18 27 -3 21 8 44 20
51 25 13 12 15 7 6 -16 -3 -9 -12 -16 -20 -16 -22 0 -16 -27 11 -54 14 -14 25
-37 25 -52 0 -24 -2 -25 -17 -13 -46 35 -62 53 -55 63 11 15 9 39 -4 43 -16 5
-37 -23 -36 -52 0 -13 -5 -22 -10 -19 -6 4 -8 20 -5 37 l4 30 -19 -26 c-19
-26 -24 -27 -111 -27 l-92 0 -21 36 -20 36 -37 -50 c-31 -44 -34 -52 -21 -63
9 -7 29 -32 45 -55 l29 -42 -21 -26 c-34 -43 -105 -86 -154 -93 -26 -3 -44
-10 -42 -17 5 -17 107 -66 138 -66 37 0 88 44 110 96 l19 42 107 4 c100 4 111
2 142 -19 41 -28 56 -29 78 -3 16 19 30 20 205 20 169 0 187 2 192 18 15 49
46 168 46 174 0 5 -22 8 -48 8 -38 0 -53 5 -70 23 -12 13 -19 27 -15 30 10 11
62 8 84 -3 17 -10 19 -7 19 20 0 40 -39 80 -77 79 -15 0 -42 -7 -60 -15z m91
-19 c-6 -14 -18 -19 -36 -16 -5 0 -8 -6 -8 -14 0 -8 -7 -15 -15 -15 -9 0 -12
6 -8 16 10 26 -30 13 -42 -14 -12 -28 -25 -29 -18 -1 8 28 47 52 72 44 11 -3
29 -2 38 4 23 14 23 14 17 -4z m-58 -121 c-3 -7 2 -15 10 -18 22 -8 17 -28 -6
-21 -36 12 -17 -45 20 -58 12 -4 12 -6 -2 -6 -33 -2 -48 27 -46 84 2 42 6 51
16 42 7 -5 11 -16 8 -23z m-686 6 c0 -11 -4 -20 -10 -20 -5 0 -9 3 -7 8 1 4
-2 8 -8 10 -15 5 -18 -27 -5 -43 7 -8 31 -20 54 -27 22 -6 47 -16 54 -21 19
-15 14 -54 -10 -71 -26 -18 -78 -21 -78 -5 0 6 7 9 15 5 21 -8 61 9 69 30 8
22 -17 49 -38 41 -9 -4 -16 -14 -16 -23 0 -10 5 -14 15 -10 8 3 15 1 15 -5 0
-6 -10 -9 -22 -7 -18 2 -23 9 -21 31 1 21 -5 31 -26 42 -47 24 -51 85 -5 85
17 0 24 -6 24 -20z m766 -19 c-3 -5 0 -26 8 -47 7 -22 11 -46 8 -54 -5 -17
-31 -40 -46 -40 -6 0 0 7 12 16 12 8 22 26 22 40 0 26 -9 31 -28 12 -9 -9 -12
-9 -12 -1 0 7 5 15 11 18 5 4 8 12 6 18 -4 12 10 47 19 47 3 0 3 -4 0 -9z
m-476 -43 c16 -15 21 -29 18 -54 -3 -23 -1 -31 6 -24 6 6 29 10 52 10 28 0 44
5 48 15 3 8 14 15 25 15 22 0 36 -16 22 -24 -5 -4 -11 0 -14 6 -4 11 -7 11
-18 0 -11 -10 -10 -15 3 -28 23 -23 48 -11 48 24 0 35 -15 50 -59 58 -17 4
-34 11 -37 16 -10 16 58 -1 86 -21 28 -20 35 -41 26 -77 -7 -28 -45 -32 -86
-9 -31 18 -72 19 -88 3 -19 -19 -14 -30 9 -23 16 5 20 3 17 -6 -8 -24 -43 -16
-46 9 -2 15 -9 22 -17 18 -7 -2 -37 4 -65 15 -29 11 -60 17 -70 14 -21 -7 -33
-32 -20 -40 6 -4 10 -1 10 6 0 10 3 10 11 2 6 -6 8 -16 5 -22 -11 -17 -34 -13
-46 9 -16 30 22 64 64 57 25 -4 35 -1 44 14 7 10 21 19 31 19 21 0 36 -26 21
-35 -6 -4 -10 -1 -10 4 0 6 -7 11 -16 11 -28 0 -11 -35 19 -38 24 -3 27 0 27
25 0 40 -9 49 -57 62 -24 7 -43 16 -43 20 0 15 77 -10 100 -31z m346 23 c-3
-5 -22 -12 -41 -15 -42 -8 -74 -49 -59 -74 15 -22 27 -24 49 -8 16 12 17 17 8
27 -10 10 -15 9 -28 -1 -8 -7 -15 -8 -15 -2 0 5 7 16 16 23 14 11 19 10 34 -9
13 -16 29 -22 58 -22 43 0 66 -18 60 -47 -4 -23 -48 -31 -48 -9 0 8 5 18 12
22 6 4 8 3 4 -4 -3 -6 -1 -14 5 -17 7 -5 9 1 7 16 -4 30 -53 37 -97 15 -43
-22 -70 -20 -80 6 -6 18 3 77 12 78 1 0 20 7 42 15 46 16 68 19 61 6z m-652
-187 c11 -28 6 -51 -14 -75 l-21 -24 16 33 c17 36 12 72 -10 72 -20 0 -29 -20
-16 -33 8 -8 11 -8 11 1 0 7 5 12 11 12 6 0 9 -6 7 -12 -3 -7 -13 -13 -23 -13
-11 0 -30 -10 -42 -23 -13 -13 -29 -22 -36 -19 -15 4 -22 47 -8 47 16 0 22
-18 9 -23 -8 -3 -6 -6 4 -6 10 -1 29 16 43 39 26 42 58 53 69 24z"/>
<path d="M379 1183 c-1 -4 -1 -12 0 -16 1 -4 -5 -15 -14 -23 -10 -11 -12 -21
-6 -33 7 -13 5 -20 -10 -29 -25 -16 -24 -56 3 -82 12 -11 16 -20 10 -20 -13 0
-16 -32 -5 -44 4 -4 8 -15 8 -24 0 -9 7 -17 15 -17 11 0 15 12 16 45 0 26 8
57 19 73 18 27 18 29 -3 57 -12 16 -18 32 -12 35 12 8 5 78 -9 83 -6 2 -12 0
-12 -5z"/>
<path d="M1557 1184 c-13 -13 -7 -24 14 -24 11 0 19 5 17 12 -5 14 -22 21 -31
12z"/>
<path d="M1568 1139 c-22 -12 -23 -38 -3 -46 13 -5 13 -8 -5 -20 -25 -18 -26
-59 -1 -75 15 -9 17 -15 8 -29 -8 -13 -8 -21 1 -32 7 -8 10 -22 6 -31 -4 -11
-1 -16 11 -16 9 0 15 6 12 13 -2 6 2 20 11 29 12 14 12 21 3 32 -10 12 -8 19
8 35 12 12 21 26 21 32 0 20 -21 49 -35 49 -13 0 -13 3 -3 20 17 27 -8 54 -34
39z"/>
<path d="M550 900 c-18 -18 -20 -33 -20 -189 0 -155 2 -170 21 -195 16 -20 29
-26 59 -26 73 0 90 40 89 215 0 121 -11 184 -35 202 -28 20 -91 16 -114 -7z
m80 -105 c16 -19 10 -159 -8 -177 -23 -23 -36 8 -37 85 0 99 14 129 45 92z"/>
<path d="M730 860 c0 -33 4 -60 10 -60 6 0 10 -38 10 -95 0 -57 -4 -95 -10
-95 -6 0 -10 -27 -10 -60 l0 -60 50 0 50 0 0 60 c0 33 -4 60 -10 60 -6 0 -10
34 -10 83 0 87 15 128 40 112 10 -6 11 -41 6 -161 l-7 -154 46 0 45 0 0 60 c0
38 -4 60 -11 60 -8 0 -10 28 -7 90 4 88 15 119 37 106 14 -9 15 -196 1 -196
-6 0 -10 -27 -10 -60 l0 -60 55 0 55 0 0 60 c0 47 -3 60 -15 60 -13 0 -15 21
-15 133 0 104 -3 137 -16 155 -19 27 -68 30 -84 5 -10 -17 -10 -17 -20 0 -14
22 -58 22 -82 0 -17 -15 -18 -15 -18 0 0 13 -9 17 -40 17 l-40 0 0 -60z"/>
<path d="M1101 894 c-15 -20 -21 -41 -21 -80 0 -53 1 -54 29 -54 23 0 30 5 33
23 4 28 32 29 36 1 2 -16 -7 -28 -33 -44 -19 -12 -42 -35 -50 -50 -28 -55 -14
-180 24 -199 18 -10 61 3 61 19 0 6 13 1 28 -10 45 -33 62 -19 62 51 0 33 -4
59 -10 59 -6 0 -10 45 -10 114 0 163 -16 196 -94 196 -25 0 -40 -7 -55 -26z
m89 -225 c0 -28 -18 -59 -34 -59 -22 0 -28 31 -11 56 19 30 45 31 45 3z"/>
<path d="M1299 915 c-5 -40 1 -110 10 -113 14 -5 15 -192 1 -192 -6 0 -10 -27
-10 -60 l0 -60 50 0 50 0 0 60 c0 35 -4 60 -10 60 -7 0 -10 34 -8 95 3 100 21
135 26 52 3 -43 5 -48 25 -45 20 3 22 9 25 85 2 46 -2 92 -8 103 -13 25 -45
26 -59 3 -10 -17 -10 -17 -11 0 0 13 -9 17 -40 17 -22 0 -40 -2 -41 -5z"/>
<path d="M995 410 c-15 -16 -17 -26 -9 -48 8 -22 15 -27 44 -27 29 0 36 5 44
27 8 22 6 32 -9 48 -10 11 -26 20 -35 20 -9 0 -25 -9 -35 -20z"/>
<path d="M931 400 c-19 -11 -9 -45 14 -45 13 0 21 8 23 21 3 23 -17 37 -37 24z"/>
<path d="M1094 395 c-8 -20 4 -35 27 -35 14 0 19 7 19 25 0 18 -5 25 -20 25
-11 0 -23 -7 -26 -15z"/>
<path d="M1155 400 c-3 -6 1 -13 10 -16 19 -8 30 0 20 15 -8 14 -22 14 -30 1z"/>
<path d="M877 394 c-13 -13 -7 -24 14 -24 11 0 19 5 17 12 -5 14 -22 21 -31
12z"/>
<path d="M410 425 c-10 -12 -10 -18 0 -29 16 -20 42 -8 38 17 -4 26 -21 32
-38 12z"/>
<path d="M324 345 c-4 -9 -2 -21 3 -26 14 -14 45 1 41 20 -4 22 -37 26 -44 6z"/>
</g>
</svg>
